<svg xmlns="http://www.w3.org/2000/svg" width="155" height="24" fill="none" viewBox="0 0 155 24"><rect width="154" height="23" x=".5" y=".5" fill="#fff" stroke="#000" rx="3.5"/><path fill="url(#paint0_linear)" d="M9.05895 13.0418C8.47411 12.457 8.47411 11.5087 9.05895 10.9239L14.9239 5.05895C15.5087 4.47411 16.457 4.47411 17.0418 5.05895L22.9067 10.9239C23.4916 11.5087 23.4916 12.457 22.9067 13.0418L17.0418 18.9067C16.457 19.4916 15.5087 19.4916 14.9239 18.9067L9.05895 13.0418Z"/><mask id="mask0" width="16" height="17" x="8" y="4" mask-type="alpha" maskUnits="userSpaceOnUse"><path fill="url(#paint1_linear)" d="M9.05895 13.0764C8.47411 12.4915 8.47411 11.5433 9.05895 10.9585L14.9239 5.09353C15.5087 4.50869 16.457 4.50868 17.0418 5.09353L22.9067 10.9585C23.4916 11.5433 23.4916 12.4915 22.9067 13.0764L17.0418 18.9413C16.457 19.5262 15.5087 19.5262 14.9239 18.9413L9.05895 13.0764Z"/></mask><g mask="url(#mask0)"><path fill="url(#paint2_linear)" d="M11.4558 11.2346C10.3615 11.2346 9.49747 11.465 8.63348 11.9834C7.92309 12.3482 6.47926 13.0778 6.38711 13.0778C6.29495 13.0778 11.9166 19.5289 14.739 22.7545L25.4525 13.5962L23.2637 11.5802C22.4573 11.8682 20.8977 12.9356 19.0013 13.0778C16.6974 13.2506 14.0478 11.2346 11.4558 11.2346Z"/></g><path fill="#333435" d="M104.362 9.06559V16.3262H106.961V9.06559H104.362ZM104.199 6.04439C104.199 6.85654 104.849 7.50626 105.661 7.50626C106.473 7.50626 107.123 6.85654 107.123 6.04439C107.123 5.23224 106.473 4.58252 105.661 4.58252C104.849 4.58252 104.199 5.23224 104.199 6.04439Z"/><path fill="#333435" d="M113.077 11.1934V9.06559H111.599V6.67787H109V9.06559H108.172V11.1934H109V16.3262H111.599V11.1934H113.077Z"/><path fill="#333435" d="M114.054 16.3262H116.653V12.7365C116.653 12.2817 116.653 11.5832 117.107 11.1447C117.319 10.9335 117.546 10.8848 117.822 10.8848C118.082 10.8848 118.374 10.9335 118.602 11.1772C118.894 11.4858 118.943 12.0381 118.943 12.7365V16.3262H121.542V12.6066C121.542 12.2492 121.574 11.6482 122.013 11.2259C122.24 11.0147 122.484 10.9335 122.776 10.9335C123.117 10.9335 123.312 11.0472 123.458 11.1772C123.751 11.4533 123.832 11.9731 123.832 12.7365V16.3262H126.431V11.5995C126.431 11.096 126.398 10.2351 125.749 9.6016C125.148 9.01686 124.271 8.93564 123.735 8.93564C123.247 8.93564 122.744 9.00061 122.224 9.29299C121.899 9.47166 121.526 9.78028 121.233 10.3001C121.054 9.94271 120.762 9.53663 120.226 9.2605C119.836 9.04934 119.349 8.93564 118.829 8.93564C118.115 8.93564 117.27 9.19553 116.653 9.94271V9.06559H114.054V16.3262Z"/><path fill="#333435" d="M135.934 12.8989C135.934 12.0868 135.804 10.8198 134.781 9.84525C133.92 9.0331 132.831 8.85443 131.987 8.85443C130.557 8.85443 129.615 9.32547 129.014 9.91022C128.381 10.5275 127.926 11.502 127.926 12.7203C127.926 14.1009 128.527 14.9943 128.998 15.4653C129.891 16.3587 131.045 16.5698 132.003 16.5698C133.579 16.5698 134.423 16.0826 134.959 15.5628C135.495 15.043 135.723 14.4745 135.836 14.0684H133.351C133.237 14.2958 133.059 14.4583 132.896 14.5557C132.572 14.7344 132.117 14.7506 132.052 14.7506C131.467 14.7506 131.142 14.5557 130.98 14.3933C130.671 14.0847 130.525 13.5649 130.525 13.1751H135.934V12.8989ZM130.606 11.6807C130.655 11.3558 130.817 11.096 130.996 10.901C131.272 10.6249 131.613 10.5112 132.052 10.5112C132.312 10.5112 132.783 10.5599 133.124 10.901C133.319 11.096 133.481 11.4046 133.546 11.6807H130.606Z"/><path fill="#333435" d="M141.512 11.031C141.918 11.031 142.373 11.2259 142.665 11.502C142.99 11.8269 143.169 12.2979 143.169 12.6878C143.169 13.1101 142.99 13.5324 142.665 13.841C142.356 14.1496 141.934 14.3283 141.512 14.3283C141.073 14.3283 140.651 14.1496 140.342 13.841C140.05 13.5486 139.839 13.1263 139.839 12.6878C139.839 12.2655 140.017 11.8106 140.342 11.502C140.635 11.2259 141.089 11.031 141.512 11.031ZM145.865 12.6878C145.865 11.3883 145.28 10.5437 144.744 10.0239C144.143 9.45542 143.104 8.82194 141.496 8.82194C139.92 8.82194 138.864 9.43917 138.263 10.0239C137.727 10.5437 137.142 11.3883 137.142 12.6878C137.142 13.6624 137.467 14.5882 138.263 15.3679C139.27 16.3587 140.44 16.5698 141.496 16.5698C142.665 16.5698 143.786 16.31 144.744 15.3679C145.54 14.5882 145.865 13.6624 145.865 12.6878Z"/><path fill="#333" d="M32.224 16C32.144 16 32.076 15.972 32.02 15.916C31.964 15.86 31.936 15.792 31.936 15.712V7.9C31.936 7.812 31.96 7.74 32.008 7.684C32.064 7.628 32.136 7.6 32.224 7.6H35.44C36.408 7.6 37.168 7.828 37.72 8.284C38.272 8.74 38.548 9.404 38.548 10.276C38.548 11.14 38.272 11.796 37.72 12.244C37.168 12.684 36.408 12.904 35.44 12.904H33.676V15.712C33.676 15.8 33.648 15.872 33.592 15.928C33.536 15.976 33.464 16 33.376 16H32.224ZM35.38 11.56C35.844 11.56 36.196 11.452 36.436 11.236C36.684 11.012 36.808 10.688 36.808 10.264C36.808 9.848 36.688 9.524 36.448 9.292C36.216 9.06 35.86 8.944 35.38 8.944H33.652V11.56H35.38ZM42.5038 16.12C41.5598 16.12 40.8318 15.88 40.3198 15.4C39.8078 14.92 39.5318 14.256 39.4918 13.408L39.4798 12.88L39.4918 12.352C39.5318 11.512 39.8118 10.852 40.3318 10.372C40.8518 9.884 41.5758 9.64 42.5038 9.64C43.4238 9.64 44.1438 9.884 44.6638 10.372C45.1838 10.852 45.4638 11.512 45.5038 12.352C45.5118 12.448 45.5158 12.624 45.5158 12.88C45.5158 13.136 45.5118 13.312 45.5038 13.408C45.4638 14.256 45.1878 14.92 44.6758 15.4C44.1638 15.88 43.4398 16.12 42.5038 16.12ZM42.5038 14.908C42.9278 14.908 43.2518 14.776 43.4758 14.512C43.7078 14.248 43.8318 13.86 43.8478 13.348C43.8558 13.268 43.8598 13.112 43.8598 12.88C43.8598 12.648 43.8558 12.492 43.8478 12.412C43.8318 11.9 43.7078 11.512 43.4758 11.248C43.2438 10.976 42.9198 10.84 42.5038 10.84C42.0798 10.84 41.7518 10.976 41.5198 11.248C41.2878 11.512 41.1638 11.9 41.1478 12.412L41.1358 12.88L41.1478 13.348C41.1638 13.86 41.2878 14.248 41.5198 14.512C41.7518 14.776 42.0798 14.908 42.5038 14.908ZM48.4733 16C48.2733 16 48.1413 15.9 48.0773 15.7L46.3613 10.132C46.3533 10.108 46.3493 10.072 46.3493 10.024C46.3493 9.952 46.3733 9.892 46.4213 9.844C46.4693 9.788 46.5293 9.76 46.6013 9.76H47.5133C47.5933 9.76 47.6613 9.784 47.7173 9.832C47.7813 9.88 47.8213 9.932 47.8373 9.988L49.0013 13.936L50.2373 10.024C50.2613 9.952 50.3013 9.892 50.3573 9.844C50.4213 9.788 50.5013 9.76 50.5973 9.76H51.2093C51.3053 9.76 51.3813 9.788 51.4373 9.844C51.5013 9.892 51.5413 9.952 51.5573 10.024L52.8053 13.936L53.9693 9.988C53.9853 9.932 54.0213 9.88 54.0773 9.832C54.1333 9.784 54.2053 9.76 54.2933 9.76H55.1933C55.2653 9.76 55.3253 9.788 55.3733 9.844C55.4293 9.892 55.4573 9.952 55.4573 10.024L55.4333 10.132L53.7173 15.7C53.6853 15.796 53.6373 15.872 53.5733 15.928C53.5173 15.976 53.4373 16 53.3333 16H52.5413C52.3333 16 52.2013 15.9 52.1453 15.7L50.9093 11.932L49.6613 15.7C49.5973 15.9 49.4613 16 49.2533 16H48.4733ZM59.249 16.12C58.353 16.12 57.641 15.864 57.113 15.352C56.593 14.84 56.317 14.112 56.285 13.168L56.273 12.868C56.273 11.868 56.533 11.08 57.053 10.504C57.581 9.928 58.309 9.64 59.237 9.64C60.189 9.64 60.921 9.928 61.433 10.504C61.953 11.08 62.213 11.848 62.213 12.808V13.06C62.213 13.14 62.185 13.208 62.129 13.264C62.073 13.32 62.001 13.348 61.913 13.348H57.929V13.444C57.945 13.892 58.065 14.264 58.289 14.56C58.521 14.848 58.837 14.992 59.237 14.992C59.693 14.992 60.065 14.808 60.353 14.44C60.425 14.352 60.481 14.3 60.521 14.284C60.561 14.26 60.629 14.248 60.725 14.248H61.781C61.853 14.248 61.913 14.268 61.961 14.308C62.017 14.348 62.045 14.404 62.045 14.476C62.045 14.668 61.929 14.896 61.697 15.16C61.473 15.416 61.149 15.64 60.725 15.832C60.301 16.024 59.809 16.12 59.249 16.12ZM60.557 12.328V12.304C60.557 11.832 60.437 11.456 60.197 11.176C59.965 10.888 59.645 10.744 59.237 10.744C58.829 10.744 58.509 10.888 58.277 11.176C58.045 11.456 57.929 11.832 57.929 12.304V12.328H60.557ZM63.8745 16C63.7945 16 63.7265 15.972 63.6705 15.916C63.6145 15.86 63.5865 15.792 63.5865 15.712V10.06C63.5865 9.972 63.6145 9.9 63.6705 9.844C63.7265 9.788 63.7945 9.76 63.8745 9.76H64.8585C64.9465 9.76 65.0185 9.788 65.0745 9.844C65.1305 9.9 65.1585 9.972 65.1585 10.06V10.552C65.5585 10.024 66.1345 9.76 66.8865 9.76H67.3905C67.4785 9.76 67.5465 9.788 67.5945 9.844C67.6505 9.892 67.6785 9.96 67.6785 10.048V10.924C67.6785 11.004 67.6505 11.072 67.5945 11.128C67.5465 11.184 67.4785 11.212 67.3905 11.212H66.4425C66.0665 11.212 65.7705 11.32 65.5545 11.536C65.3385 11.752 65.2305 12.048 65.2305 12.424V15.712C65.2305 15.792 65.2025 15.86 65.1465 15.916C65.0905 15.972 65.0225 16 64.9425 16H63.8745ZM71.3318 16.12C70.4358 16.12 69.7238 15.864 69.1958 15.352C68.6758 14.84 68.3998 14.112 68.3678 13.168L68.3558 12.868C68.3558 11.868 68.6158 11.08 69.1358 10.504C69.6638 9.928 70.3918 9.64 71.3198 9.64C72.2718 9.64 73.0038 9.928 73.5158 10.504C74.0358 11.08 74.2958 11.848 74.2958 12.808V13.06C74.2958 13.14 74.2678 13.208 74.2118 13.264C74.1558 13.32 74.0838 13.348 73.9958 13.348H70.0118V13.444C70.0278 13.892 70.1478 14.264 70.3718 14.56C70.6038 14.848 70.9198 14.992 71.3198 14.992C71.7758 14.992 72.1478 14.808 72.4358 14.44C72.5078 14.352 72.5638 14.3 72.6038 14.284C72.6438 14.26 72.7118 14.248 72.8078 14.248H73.8638C73.9358 14.248 73.9958 14.268 74.0438 14.308C74.0998 14.348 74.1278 14.404 74.1278 14.476C74.1278 14.668 74.0118 14.896 73.7798 15.16C73.5558 15.416 73.2318 15.64 72.8078 15.832C72.3838 16.024 71.8918 16.12 71.3318 16.12ZM72.6398 12.328V12.304C72.6398 11.832 72.5198 11.456 72.2798 11.176C72.0478 10.888 71.7278 10.744 71.3198 10.744C70.9118 10.744 70.5918 10.888 70.3598 11.176C70.1278 11.456 70.0118 11.832 70.0118 12.304V12.328H72.6398ZM77.9853 16.12C77.1773 16.12 76.5573 15.864 76.1253 15.352C75.6933 14.832 75.4573 14.14 75.4173 13.276L75.4053 12.88L75.4173 12.484C75.4493 11.636 75.6813 10.952 76.1133 10.432C76.5533 9.904 77.1773 9.64 77.9853 9.64C78.7533 9.64 79.3653 9.904 79.8213 10.432V7.768C79.8213 7.68 79.8493 7.612 79.9053 7.564C79.9613 7.508 80.0293 7.48 80.1093 7.48H81.1533C81.2413 7.48 81.3093 7.508 81.3573 7.564C81.4133 7.612 81.4413 7.68 81.4413 7.768V15.712C81.4413 15.792 81.4133 15.86 81.3573 15.916C81.3093 15.972 81.2413 16 81.1533 16H80.1813C80.1013 16 80.0333 15.972 79.9773 15.916C79.9213 15.86 79.8933 15.792 79.8933 15.712V15.268C79.4533 15.836 78.8173 16.12 77.9853 16.12ZM78.4413 14.824C78.8973 14.824 79.2333 14.68 79.4493 14.392C79.6733 14.096 79.7973 13.732 79.8213 13.3C79.8293 13.204 79.8333 13.052 79.8333 12.844C79.8333 12.628 79.8293 12.472 79.8213 12.376C79.8053 11.976 79.6813 11.636 79.4493 11.356C79.2173 11.076 78.8813 10.936 78.4413 10.936C77.5853 10.936 77.1293 11.464 77.0733 12.52L77.0613 12.88L77.0733 13.24C77.1293 14.296 77.5853 14.824 78.4413 14.824ZM89.4389 16.12C88.6069 16.12 87.9709 15.836 87.5309 15.268V15.712C87.5309 15.792 87.5029 15.86 87.4469 15.916C87.3909 15.972 87.3189 16 87.2309 16H86.2709C86.1909 16 86.1229 15.972 86.0669 15.916C86.0109 15.86 85.9829 15.792 85.9829 15.712V7.768C85.9829 7.68 86.0109 7.612 86.0669 7.564C86.1229 7.508 86.1909 7.48 86.2709 7.48H87.3149C87.4029 7.48 87.4709 7.508 87.5189 7.564C87.5749 7.612 87.6029 7.68 87.6029 7.768V10.432C88.0509 9.904 88.6629 9.64 89.4389 9.64C90.2469 9.64 90.8669 9.904 91.2989 10.432C91.7389 10.952 91.9709 11.636 91.9949 12.484C92.0029 12.58 92.0069 12.712 92.0069 12.88C92.0069 13.04 92.0029 13.172 91.9949 13.276C91.9629 14.14 91.7309 14.832 91.2989 15.352C90.8669 15.864 90.2469 16.12 89.4389 16.12ZM88.9829 14.824C89.8389 14.824 90.2949 14.296 90.3509 13.24C90.3589 13.16 90.3629 13.04 90.3629 12.88C90.3629 12.72 90.3589 12.6 90.3509 12.52C90.2949 11.464 89.8389 10.936 88.9829 10.936C88.5429 10.936 88.2069 11.076 87.9749 11.356C87.7429 11.636 87.6189 11.976 87.6029 12.376C87.5949 12.472 87.5909 12.628 87.5909 12.844C87.5909 13.052 87.5949 13.204 87.6029 13.3C87.6189 13.724 87.7389 14.084 87.9629 14.38C88.1869 14.676 88.5269 14.824 88.9829 14.824ZM94.3122 18.28C94.2482 18.28 94.1882 18.256 94.1322 18.208C94.0842 18.16 94.0602 18.104 94.0602 18.04C94.0602 17.984 94.0762 17.92 94.1082 17.848L95.0562 15.628L92.7522 10.192C92.7202 10.12 92.7042 10.064 92.7042 10.024C92.7122 9.952 92.7402 9.892 92.7882 9.844C92.8362 9.788 92.8962 9.76 92.9682 9.76H93.9642C94.1082 9.76 94.2122 9.836 94.2762 9.988L95.8722 13.9L97.4922 9.988C97.5722 9.836 97.6842 9.76 97.8282 9.76H98.8002C98.8722 9.76 98.9322 9.784 98.9802 9.832C99.0282 9.88 99.0522 9.936 99.0522 10C99.0522 10.056 99.0362 10.12 99.0042 10.192L95.6082 18.052C95.5442 18.204 95.4322 18.28 95.2722 18.28H94.3122Z"/><defs><linearGradient id="paint0_linear" x1="15.96" x2="15.96" y1="17.385" y2="7.262" gradientUnits="userSpaceOnUse"><stop stop-color="#009EFD"/><stop offset="1" stop-color="#2AF598"/></linearGradient><linearGradient id="paint1_linear" x1="15.96" x2="15.96" y1="17.42" y2="7.296" gradientUnits="userSpaceOnUse"><stop stop-color="#009EFD"/><stop offset="1" stop-color="#2AF598"/></linearGradient><linearGradient id="paint2_linear" x1="23.494" x2="5.523" y1="18.319" y2="13.078" gradientUnits="userSpaceOnUse"><stop stop-color="#00C1FF"/><stop offset="1" stop-color="#0024FF"/></linearGradient></defs></svg>